HIERARCHY
ROOT Hips
{
	OFFSET 0.000000 0.000000 0.000000
	CHANNELS 6 Xposition Yposition Zposition Zrotation Yrotation Xrotation 
	JOINT LHipJoint
	{
		OFFSET 0.000000 0.000000 0.000000
		CHANNELS 3 Zrotation Yrotation Xrotation
		JOINT LeftUpLeg
		{
			OFFSET 1.363060 -1.794630 0.839290
			CHANNELS 3 Zrotation Yrotation Xrotation
			JOINT LeftLeg
			{
				OFFSET 2.448110 -6.726130 0.000000
				CHANNELS 3 Zrotation Yrotation Xrotation
				JOINT LeftFoot
				{
					OFFSET 2.562200 -7.039590 0.000000
					CHANNELS 3 Zrotation Yrotation Xrotation
					JOINT LeftToeBase
					{
						OFFSET 0.157640 -0.433110 2.322550
						CHANNELS 3 Zrotation Yrotation Xrotation
						End Site
						{
							OFFSET 0.000000 0.000000 0.000000
						}
					}
				}
			}
		}
	}
	JOINT RHipJoint
	{
		OFFSET 0.000000 0.000000 0.000000
		CHANNELS 3 Zrotation Yrotation Xrotation
		JOINT RightUpLeg
		{
			OFFSET -1.305520 -1.794630 0.839290
			CHANNELS 3 Zrotation Yrotation Xrotation
			JOINT RightLeg
			{
				OFFSET -2.542530 -6.985550 0.000000
				CHANNELS 3 Zrotation Yrotation Xrotation
				JOINT RightFoot
				{
					OFFSET -2.568260 -7.056230 0.000000
					CHANNELS 3 Zrotation Yrotation Xrotation
					JOINT RightToeBase
					{
						OFFSET -0.164730 -0.452590 2.363150
						CHANNELS 3 Zrotation Yrotation Xrotation
						End Site
						{
							OFFSET 0.000000 0.000000 0.000000
						}
					}
				}
			}
		}
	}
	JOINT LowerBack
	{
		OFFSET 0.000000 0.000000 0.000000
		CHANNELS 3 Zrotation Yrotation Xrotation
		JOINT Spine
		{
			OFFSET 0.028270 2.035590 -0.193380
			CHANNELS 3 Zrotation Yrotation Xrotation
			JOINT Spine1
			{
				OFFSET 0.056720 2.048850 -0.042750
				CHANNELS 3 Zrotation Yrotation Xrotation
				JOINT Neck
				{
					OFFSET 0.000000 0.000000 0.000000
					CHANNELS 3 Zrotation Yrotation Xrotation
					JOINT Neck1
					{
						OFFSET -0.054170 1.746240 0.172020
						CHANNELS 3 Zrotation Yrotation Xrotation
						JOINT Head
						{
							OFFSET 0.104070 1.761360 -0.123970
							CHANNELS 3 Zrotation Yrotation Xrotation
							End Site
							{
								OFFSET 0.000000 0.000000 0.000000
							}
						}
					}
				}
				JOINT LeftShoulder
				{
					OFFSET 0.000000 0.000000 0.000000
					CHANNELS 3 Zrotation Yrotation Xrotation
					JOINT LeftArm
					{
						OFFSET 3.362410 1.200890 -0.311210
						CHANNELS 3 Zrotation Yrotation Xrotation
						JOINT LeftForeArm
						{
							OFFSET 4.983000 -0.000000 -0.000000
							CHANNELS 3 Zrotation Yrotation Xrotation
							JOINT LeftHand
							{
								OFFSET 3.483560 -0.000000 -0.000000
								CHANNELS 3 Zrotation Yrotation Xrotation
								JOINT LeftFingerBase
								{
									OFFSET 0.000000 0.000000 0.000000
									CHANNELS 3 Zrotation Yrotation Xrotation
									JOINT LeftHandIndex1
									{
										OFFSET 0.715260 -0.000000 -0.000000
										CHANNELS 3 Zrotation Yrotation Xrotation
										End Site
										{
											OFFSET 0.000000 0.000000 0.000000
										}
									}
								}
								JOINT LThumb
								{
									OFFSET 0.000000 0.000000 0.000000
									CHANNELS 3 Zrotation Yrotation Xrotation
									End Site
									{
										OFFSET 0.000000 0.000000 0.000000
									}
								}
							}
						}
					}
				}
				JOINT RightShoulder
				{
					OFFSET 0.000000 0.000000 0.000000
					CHANNELS 3 Zrotation Yrotation Xrotation
					JOINT RightArm
					{
						OFFSET -3.136600 1.374050 -0.404650
						CHANNELS 3 Zrotation Yrotation Xrotation
						JOINT RightForeArm
						{
							OFFSET -5.241900 -0.000000 -0.000000
							CHANNELS 3 Zrotation Yrotation Xrotation
							JOINT RightHand
							{
								OFFSET -3.444170 -0.000000 -0.000000
								CHANNELS 3 Zrotation Yrotation Xrotation
								JOINT RightFingerBase
								{
									OFFSET 0.000000 0.000000 0.000000
									CHANNELS 3 Zrotation Yrotation Xrotation
									JOINT RightHandIndex1
									{
										OFFSET -0.622530 -0.000000 -0.000000
										CHANNELS 3 Zrotation Yrotation Xrotation
										End Site
										{
											OFFSET 0.000000 0.000000 0.000000
										}
									}
								}
								JOINT RThumb
								{
									OFFSET 0.000000 0.000000 0.000000
									CHANNELS 3 Zrotation Yrotation Xrotation
									End Site
									{
										OFFSET 0.000000 0.000000 0.000000
									}
								}
							}
						}
					}
				}
			}
		}
	}
}
MOTION
Frames: 10
Frame Time: 0.008333
-4.093850 15.885677 -0.937202 0.102275 81.732073 21.362851 -8.852072 -1.369816 -2.214937 -15.891893 2.032095 -59.908588 -1.616969 3.550266 49.683325 1.918102 7.944627 -11.918678 -0.409400 0.000000 -10.994100 10.853511 -1.046444 -5.355499 6.969592 -9.875370 -22.571237 1.121572 -4.290537 58.137371 0.696165 9.655338 -13.558637 -1.021300 0.000000 -68.000200 -3.037463 1.030595 9.804142 -1.415441 1.373756 -1.038883 -5.865339 1.463464 0.147730 8.857875 -7.922584 -7.686738 -2.194706 -0.140006 -0.348838 0.000000 0.000000 0.000000 6.494810 18.849433 2.090888 -72.630484 19.210089 4.555151 -0.134395 -86.003391 0.002026 -2.874329 8.081531 -0.200586 -0.010378 0.053668 0.000000 0.000000 0.000000 0.000000 0.000000 0.000000 0.000000 6.501068 -0.339382 -1.551800 74.873619 2.455076 9.108037 179.962395 88.081501 179.961436 -6.177471 2.882925 -0.179660 0.085924 -0.418350 0.000000 0.000000 0.000000 0.000000 0.000000 0.000000 0.000000 
-3.961257 15.885184 -0.933239 0.136498 81.530071 21.280193 -8.874331 -1.343185 -2.296949 -15.978007 2.347355 -59.563836 -1.618815 3.588199 50.360541 1.987525 8.157974 -12.927039 -0.594800 0.000000 -11.687100 10.938481 -1.081270 -5.301493 6.634473 -9.891707 -22.620128 0.931773 -4.357727 58.901632 0.729184 9.737728 -12.013839 -0.830700 0.000001 -69.636800 -3.274842 1.009956 9.783176 -1.462924 1.357484 -1.039837 -5.880647 1.449577 0.157884 8.844555 -7.882757 -7.673057 -2.220890 -0.141975 -0.345313 0.000000 0.000000 0.000000 6.283506 18.835352 2.054732 -72.753015 18.486866 4.236205 -0.145354 -85.770223 0.001314 -2.627943 8.123305 -0.183755 -0.015239 0.056955 0.000000 0.000000 0.000000 0.000000 0.000000 0.000000 0.000000 6.642749 -0.355035 -1.528565 75.333926 2.307026 9.057994 179.986372 88.985457 179.961401 -6.257203 2.877468 -0.181366 0.086595 -0.413512 0.000000 0.000000 0.000000 0.000000 0.000000 0.000000 0.000000 
-3.830066 15.886940 -0.929282 0.145036 81.356424 21.189095 -8.897525 -1.309740 -2.365123 -16.051839 2.630234 -59.168750 -1.629488 3.612211 50.878119 2.051268 8.341877 -13.869096 -0.775099 -0.000000 -12.436799 11.015712 -1.110941 -5.250606 6.336554 -9.912238 -22.684605 0.742449 -4.416510 59.622414 0.748618 9.788391 -10.404860 -0.612100 -0.000000 -71.078800 -3.487713 0.974880 9.754675 -1.503380 1.326034 -1.040916 -5.889270 1.420296 0.169443 8.810985 -7.851807 -7.653620 -2.245307 -0.143903 -0.339968 0.000000 0.000000 0.000000 6.049380 18.790272 2.015214 -72.873743 17.752164 3.914199 -0.156976 -85.526233 0.000480 -2.359197 8.190218 -0.165723 -0.020449 0.060079 0.000000 0.000000 0.000000 0.000000 0.000000 0.000000 0.000000 6.763206 -0.396942 -1.503742 75.785110 2.169231 9.071211 -179.988597 89.943831 179.961307 -6.359317 2.866849 -0.183471 0.087783 -0.408037 0.000000 0.000000 0.000000 0.000000 0.000000 0.000000 0.000000 
-3.700480 15.890515 -0.925588 0.118271 81.212512 21.075630 -8.922485 -1.272374 -2.419302 -16.100621 2.866275 -58.727631 -1.643301 3.624099 51.269211 2.109883 8.506902 -14.727329 -0.945700 0.000001 -13.128501 11.085048 -1.135306 -5.206682 6.075924 -9.942722 -22.752683 0.557908 -4.467325 60.300116 0.755563 9.822486 -8.768968 -0.374201 0.000000 -72.197599 -3.674950 0.928006 9.723751 -1.536565 1.282159 -1.039612 -5.890584 1.378541 0.188489 8.759783 -7.833685 -7.635387 -2.267122 -0.145608 -0.334948 0.000000 0.000000 0.000000 5.816026 18.742460 1.973134 -73.004529 16.971513 3.622742 -0.170490 -85.246326 -0.000468 -2.073349 8.279189 -0.146590 -0.025967 0.063155 0.000000 0.000000 0.000000 0.000000 0.000000 0.000000 0.000000 6.862639 -0.466981 -1.479470 76.214545 2.038914 9.146584 0.036903 89.061883 -0.038770 -6.471787 2.849860 -0.185477 0.089218 -0.401933 0.000000 0.000000 0.000000 0.000000 0.000000 0.000000 0.000000 
-3.572522 15.895541 -0.922299 0.069521 81.095282 20.953378 -8.949499 -1.232441 -2.457666 -16.119892 3.042028 -58.252887 -1.655333 3.626006 51.567139 2.165351 8.669305 -15.491833 -1.104300 0.000000 -13.679100 11.147646 -1.153147 -5.171833 5.848465 -9.994293 -22.834504 0.378013 -4.511608 60.948930 0.750298 9.840560 -7.105868 -0.118501 0.000000 -72.998000 -3.836965 0.869225 9.690784 -1.562545 1.225813 -1.037816 -5.884529 1.324084 0.207608 8.689471 -7.826147 -7.614453 -2.286456 -0.147174 -0.329017 0.000000 0.000000 0.000000 5.569838 18.665069 1.929127 -73.137679 16.184887 3.339152 -0.183908 -84.970338 -0.001505 -1.776671 8.390728 -0.126458 -0.031563 0.066100 0.000000 0.000000 0.000000 0.000000 0.000000 0.000000 0.000000 6.936659 -0.560205 -1.452130 76.616602 1.908560 9.288817 0.062445 88.042153 -0.038771 -6.584741 2.828500 -0.187086 0.090774 -0.395302 0.000000 0.000000 0.000000 0.000000 0.000000 0.000000 0.000000 
-3.446361 15.901737 -0.919427 0.011397 81.002382 20.834019 -8.978450 -1.191838 -2.480935 -16.108532 3.150688 -57.754308 -1.661821 3.620056 51.803610 2.219857 8.844503 -16.163194 -1.251300 -0.000000 -14.041700 11.204381 -1.163730 -5.148260 5.650440 -10.073195 -22.934507 0.203814 -4.550954 61.581216 0.732282 9.832235 -5.438593 0.149200 0.000000 -73.429900 -3.976759 0.800325 9.659033 -1.582105 1.158956 -1.035563 -5.871488 1.258860 0.224573 8.601902 -7.829664 -7.591508 -2.303473 -0.148603 -0.322437 0.000000 0.000000 0.000000 5.314216 18.552596 1.883942 -73.272342 15.398789 3.066229 -0.196700 -84.708230 -0.002612 -1.472347 8.520293 -0.105527 -0.037120 0.068963 0.000000 0.000000 0.000000 0.000000 0.000000 0.000000 0.000000 6.986508 -0.674312 -1.419986 76.983364 1.773160 9.496487 0.087675 87.011551 -0.038631 -6.686280 2.803869 -0.188094 0.092249 -0.388239 0.000000 0.000000 0.000000 0.000000 0.000000 0.000000 0.000000 
-3.322372 15.908864 -0.916983 -0.049896 80.931636 20.721260 -9.008722 -1.153114 -2.492200 -16.067869 3.193175 -57.240154 -1.660489 3.608230 52.006006 2.275433 9.044591 -16.751320 -1.389400 -0.000000 -14.208100 11.255573 -1.166964 -5.137765 5.480071 -10.177719 -23.053292 0.038801 -4.587376 62.208894 0.701404 9.777878 -3.838825 0.413500 0.000000 -73.414700 -4.099027 0.725697 9.633854 -1.596663 1.086248 -1.030317 -5.852777 1.187794 0.245885 8.503839 -7.843477 -7.573895 -2.318512 -0.149784 -0.317614 0.000000 0.000000 0.000000 5.076113 18.442705 1.838532 -73.414572 14.560988 2.852163 -0.210648 -84.424504 -0.003786 -1.165021 8.660577 -0.083695 -0.042683 0.071941 0.000000 0.000000 0.000000 0.000000 0.000000 0.000000 0.000000 7.021196 -0.804905 -1.385774 77.305866 1.626224 9.753609 0.112083 85.995251 -0.038268 -6.758301 2.775969 -0.188007 0.093250 -0.380842 0.000000 0.000000 0.000000 0.000000 0.000000 0.000000 0.000000 
-3.200642 15.916925 -0.914818 -0.092157 80.875652 20.639420 -9.039333 -1.116465 -2.492577 -16.007005 3.174730 -56.722699 -1.650972 3.592150 52.191113 2.334358 9.279842 -17.268907 -1.521700 0.000000 -14.209400 11.302521 -1.161706 -5.140029 5.332425 -10.311870 -23.209640 -0.118672 -4.622959 62.851655 0.656024 9.638365 -2.324974 0.663900 -0.000000 -73.026500 -4.207724 0.645808 9.614994 -1.607286 1.008282 -1.025361 -5.829347 1.111167 0.259343 8.393753 -7.865988 -7.553469 -2.332462 -0.150931 -0.312073 0.000000 0.000000 0.000000 4.832745 18.283927 1.793022 -73.548750 13.736030 2.655952 -0.222837 -84.175941 -0.004989 -0.857441 8.806998 -0.061168 -0.047996 0.074951 0.000000 0.000000 0.000000 0.000000 0.000000 0.000000 0.000000 7.039085 -0.948030 -1.343295 77.582984 1.464822 10.064646 0.135834 84.995600 -0.037674 -6.797068 2.750703 -0.187120 0.093810 -0.373308 0.000000 0.000000 0.000000 0.000000 0.000000 0.000000 0.000000 
-3.081515 15.925893 -0.912836 -0.118031 80.828749 20.584710 -9.069152 -1.083529 -2.486869 -15.932452 3.109886 -56.207498 -1.634350 3.573049 52.369171 2.397616 9.552146 -17.734209 -1.652400 0.000000 -14.098600 11.345391 -1.148235 -5.155131 5.208193 -10.467478 -23.407611 -0.266585 -4.659877 63.521858 0.595713 9.369564 -0.977883 0.875500 0.000000 -72.241600 -4.307193 0.565636 9.607291 -1.615546 0.930276 -1.018525 -5.803335 1.034441 0.270448 8.278416 -7.894585 -7.535562 -2.346188 -0.152003 -0.307658 0.000000 0.000000 0.000000 4.606161 18.110175 1.747969 -73.676433 12.876235 2.522787 -0.234978 -83.928913 -0.006214 -0.554165 8.951426 -0.038241 -0.053119 0.078163 0.000000 0.000000 0.000000 0.000000 0.000000 0.000000 0.000000 7.051477 -1.097662 -1.295191 77.809387 1.283684 10.409492 0.158671 84.033573 -0.036797 -6.787606 2.728856 -0.185135 0.093605 -0.365751 0.000000 0.000000 0.000000 0.000000 0.000000 0.000000 0.000000 
-2.965176 15.935830 -0.910872 -0.127008 80.782064 20.558317 -9.096993 -1.054519 -2.478643 -15.853431 3.016955 -55.701034 -1.613067 3.551755 52.540965 2.465625 9.858714 -18.164676 -1.784700 -0.000001 -13.938800 11.384753 -1.126269 -5.181701 5.107035 -10.638949 -23.659587 -0.405907 -4.700017 64.233361 0.518998 8.918892 0.154803 1.026300 -0.000000 -71.132101 -4.400643 0.487696 9.611965 -1.622606 0.854872 -1.010618 -5.776462 0.960205 0.275637 8.159580 -7.926369 -7.517290 -2.360608 -0.153115 -0.303598 0.000000 0.000000 0.000000 4.393090 17.910364 1.703409 -73.788081 11.995618 2.451390 -0.246363 -83.697270 -0.007437 -0.258616 9.087573 -0.015116 -0.057972 0.081591 0.000000 0.000000 0.000000 0.000000 0.000000 0.000000 0.000000 7.062587 -1.248763 -1.240002 77.984668 1.081594 10.781075 0.180761 83.115182 -0.035645 -6.726251 2.714476 -0.182153 0.092598 -0.358323 0.000000 0.000000 0.000000 0.000000 0.000000 0.000000 0.000000 
